<svg width="32" height="32" viewBox="0 0 32 32" fill="none" xmlns="http://www.w3.org/2000/svg">
  <!-- 背景 -->
  <rect width="32" height="32" rx="6" fill="#2563eb"/>

  <!-- S + E のアイコン -->
  <path d="M9 12C9 10.8954 9.89543 10 11 10H15C16.1046 10 17 10.8954 17 12C17 13.1046 16.1046 14 15 14H11V16H15C17.2091 16 19 17.7909 19 20C19 22.2091 17.2091 24 15 24H11C9.89543 24 9 23.1046 9 22V12Z" fill="white"/>
  <rect x="21" y="10" width="2" height="14" rx="1" fill="white"/>
  <rect x="21" y="10" width="6" height="2" rx="1" fill="white"/>
  <rect x="21" y="16" width="5" height="2" rx="1" fill="white"/>
  <rect x="21" y="22" width="6" height="2" rx="1" fill="white"/>
</svg>
